<?xml version="1.0" encoding="UTF-8"?>
<svg width="82px" height="80px" viewBox="0 0 82 80" version="1.1" xmlns="http://www.w3.org/2000/svg" xmlns:xlink="http://www.w3.org/1999/xlink">
    <!-- Generator: Sketch 51.2 (57519) - http://www.bohemiancoding.com/sketch -->
    <title>Group 15</title>
    <desc>Created with Sketch.</desc>
    <defs></defs>
    <g id="Page-1" stroke="none" stroke-width="1" fill="none" fill-rule="evenodd">
        <g id="Group-15" stroke="#f1f4fb" stroke-width="0.5">
            <g id="segment-1" transform="translate(41.000000, 0.000000)" fill="#E2E5F3">
                <path d="M0.25,0.25 L0.25,5.963 C8.26352231,6.02355453 16.0077053,8.86307649 22.161,13.997 L25.805,9.623 C18.6334353,3.62611042 9.59827014,0.312214787 0.25,0.25 Z" id="Shape"></path>
            </g>
            <g id="segment-2" transform="translate(63.000000, 9.000000)" fill="#E2E5F3">
                <path d="M4.187,0.946 L0.543,5.32 C6.64802209,10.5654822 10.7649344,17.7496902 12.204,25.669 L17.782,24.679 C16.1138088,15.4399374 11.3125916,7.05802574 4.187,0.945 L4.187,0.946 Z" id="Shape"></path>
            </g>
            <g id="segment-3" transform="translate(71.000000, 34.000000)" fill="#E2E5F3">
                <path d="M9.868,0.171 L4.291,1.161 C5.62516936,9.11106666 4.19508991,17.2782602 0.239,24.302 L5.149,27.157 C9.76942912,18.9687418 11.4358067,9.44143979 9.869,0.171 L9.868,0.171 Z" id="Shape"></path>
            </g>
            <g id="segment-4" transform="translate(53.000000, 58.000000)" fill="#E2E5F3">
                <path d="M22.9,3.59 L17.99,0.737 C13.9534685,7.67755871 7.64484631,13.0119827 0.13,15.839 L2.068,21.206 C10.8396316,17.9187549 18.2012156,11.6936366 22.9,3.59 Z" id="Shape"></path>
            </g>
            <g id="segment-6" transform="translate(6.000000, 58.000000)" fill="#C6D9F4">
                <path d="M20.932,21.206 L22.871,15.839 C15.3556266,13.0119252 9.04660579,7.6771096 5.01,0.736 L0.1,3.591 C4.79896167,11.6942617 12.1605247,17.9190088 20.932,21.206 Z" id="Shape"></path>
            </g>
            <g id="segment-7" transform="translate(0.000000, 34.000000)" fill="#A9CCF5">
                <path d="M5.851,27.157 L10.761,24.302 C6.80548199,17.2784216 5.37576377,9.11162832 6.71,1.162 L1.132,0.17 C-0.435647354,9.44053421 1.23002876,18.9682157 5.85,27.157 L5.851,27.157 Z" id="Shape"></path>
            </g>
            <g id="segment-8" transform="translate(1.000000, 9.000000)" fill="#8DC0F6">
                <path d="M0.218,24.678 L5.796,25.668 C7.2352808,17.7490504 11.3521751,10.5652269 17.457,5.32 L13.813,0.946 C6.68780396,7.05851584 1.88662304,15.4396578 0.218,24.678 Z" id="Shape"></path>
            </g>
            <g id="segment-9" transform="translate(15.000000, 0.000000)" fill="#71B3F6">
                <path d="M0.195,9.623 L3.839,13.997 C9.99229474,8.86307649 17.7364777,6.02355453 25.75,5.963 L25.75,0.251 C16.4018537,0.312933999 7.36670241,3.62647098 0.195,9.623 Z" id="Shape"></path>
            </g>
        </g>
    </g>
</svg>
