<svg height="512" viewBox="0 0 58 58" width="512" xmlns="http://www.w3.org/2000/svg"><g id="030---Fire-Service" fill="none" fill-rule="evenodd" transform="translate(-1 -1)"><g fill-rule="nonzero"><path id="Shape" d="m59 31v27c0 .5522847-.4477153 1-1 1h-28v-31h26c1.6568542 0 3 1.3431458 3 3z" fill="#f0c419"/><path id="Shape" d="m30.22 12.97-12.51-11.68c-.3930079-.38997787-1.0269921-.38997787-1.42 0l-15 14c-.28845995.2860905-.37516186.7182668-.21937095 1.0934815s.52310588.6188811.92937095.6165185h2v41c0 .5522847.44771525 1 1 1h25v-43.5z" fill="#f3d55b"/><path id="Rectangle-path" d="m30 28h1.78v31h-1.78z" fill="#f29c1f"/><circle id="Oval" cx="17" cy="15" fill="#35495e" r="5"/><path id="Shape" d="m11.5 23c1.9329966 0 3.5 1.5670034 3.5 3.5v9.5c0 .5522847-.4477153 1-1 1h-5c-.55228475 0-1-.4477153-1-1v-9.5c0-1.9329966 1.56700338-3.5 3.5-3.5z" fill="#35495e"/><path id="Shape" d="m22.5 23c1.9329966 0 3.5 1.5670034 3.5 3.5v9.5c0 .5522847-.4477153 1-1 1h-5c-.5522847 0-1-.4477153-1-1v-9.5c0-1.9329966 1.5670034-3.5 3.5-3.5z" fill="#35495e"/><path id="Shape" d="m24 45v14h-14v-14c0-.5522847.4477153-1 1-1h12c.5522847 0 1 .4477153 1 1z" fill="#e57e25"/><path id="Shape" d="m19 54h-4c-.5522847 0-1-.4477153-1-1s.4477153-1 1-1h4c.5522847 0 1 .4477153 1 1s-.4477153 1-1 1z" fill="#ecf0f1"/><path id="Shape" d="m55 35v4h-21v-4c0-.5522847.4477153-1 1-1h19c.5522847 0 1 .4477153 1 1z" fill="#e57e25"/><path id="Rectangle-path" d="m34 39h21v5h-21z" fill="#d25627"/><path id="Rectangle-path" d="m34 44h21v5h-21z" fill="#e57e25"/><path id="Rectangle-path" d="m34 49h21v5h-21z" fill="#d25627"/><path id="Rectangle-path" d="m34 54h21v5h-21z" fill="#e57e25"/><path id="Shape" d="m18 10.1v9.8c-.66.1333333-1.34.1333333-2 0v-9.8c.66-.13333333 1.34-.13333333 2 0z" fill="#bdc3c7"/><path id="Shape" d="m22 15c.0024107.3359451-.0311132.6711847-.1 1h-9.8c-.1333333-.66-.1333333-1.34 0-2h9.8c.0688868.3288153.1024107.6640549.1 1z" fill="#bdc3c7"/><circle id="Oval" cx="44.5" cy="15.5" fill="#e64c3c" r="14.5"/><path id="Rectangle-path" d="m16 44h2v15h-2z" fill="#d25627"/></g><path id="Shape" d="m51.324 19.534c-.112864 3.9228686-3.3255081 7.0444119-7.25 7.0444119s-7.137136-3.1215433-7.25-7.0444119c0-5.279 7.633-7.565 5.117-15.122 1.8784064 1.52404111 3.5935919 3.23889149 5.118 5.117.6188577 1.0840858.9493842 2.3087556.96 3.557.0557303 1.1658792-.2824079 2.3166058-.96 3.267 1.2024402.478794 2.5763381.1353195 3.412-.853l.034-.017c.5172588 1.2892384.7948088 2.6620769.819 4.051z" fill="#f0c419"/><path id="Shape" d="m43.2 17.206c1.035 3.2-2.109 4.164-2.109 6.4.0297882 1.6275497 1.3576777 2.931358 2.9855 2.931358s2.9557118-1.3038083 2.9855-2.931358c-.003-2.236-1.934-4.694-3.862-6.4z" fill="#f29c1f"/></g></svg>