<svg id="Layer_1" enable-background="new 0 0 64 64" height="512" viewBox="0 0 64 64" width="512" xmlns="http://www.w3.org/2000/svg"><path d="m49.7 39.2-9.7-5.2h-16l-9.7 5.2c-3.3 1.7-5.3 5.1-5.3 8.8v13h46v-13c0-3.7-2-7.1-5.3-8.8z" fill="#3f3f3f"/><path d="m45.4 43.2 3.7-4.4-9.1-4.8h-16l-9.1 4.8 3.7 4.4c1.6 1.8 2.4 4.1 2.4 6.5v11.3h22v-11.3c0-2.4.9-4.7 2.4-6.5z" fill="#2b2b2b"/><path d="m24 34v2c0 4.4 3.6 8 8 8s8-3.6 8-8v-2z" fill="#686868"/><path d="m22 21h-3c-1.1 0-2 .9-2 2v.9c0 .7.4 1.4 1 1.7l4 2.4z" fill="#ce7c5f"/><path d="m45 21h-3v7l4-2.4c.6-.4 1-1 1-1.7v-.9c0-1.1-.9-2-2-2z" fill="#ce7c5f"/><path d="m20 19v6.7c0 3.9 2.1 7.5 5.5 9.5l3.5 2.1c1.9 1.1 4.2 1.1 6 0l3.5-2.1c3.4-2 5.5-5.6 5.5-9.5v-6.7z" fill="#d8927c"/><path d="m48 17c0-1.1-.9-2-2-2h-2l-.2-2c-.5-4.5-4.3-8-8.8-8l-.1-.2c-.6-1.1-1.7-1.8-2.9-1.8-1.2 0-2.3.7-2.9 1.8l-.1.2c-4.5 0-8.3 3.4-8.8 8l-.2 2h-2c-1.1 0-2 .9-2 2 0 1.1.9 2 2 2h28c1.1 0 2-.9 2-2z" fill="#f4a422"/><path d="m18 15h28c1.1 0 2 .9 2 2 0 1.1-.9 2-2 2h-28c-1.1 0-2-.9-2-2 0-1.1.9-2 2-2z" fill="#e8821c"/><path d="m9 51h12v4h-12z" fill="#e8ce0c"/><path d="m32 53h-8v4h8 8v-4z" fill="#e8ce0c"/><path d="m38 23h-12c-1.1 0-2 .9-2 2v9.1c.5.4.9.7 1.5 1l3.5 2.1c1.9 1.1 4.2 1.1 6 0l3.5-2.1c.5-.3 1-.7 1.5-1v-9.1c0-1.1-.9-2-2-2z" fill="#3f3f3f"/><path d="m36 32c0-.6-.3-1.2-.8-1.6l-2-1.5c-.7-.5-1.7-.5-2.4 0l-2 1.5c-.5.4-.8 1-.8 1.6v4.7l1 .6c1.9 1.1 4.2 1.1 6 0l1-.6z" fill="#2b2b2b"/><path d="m43 51h12v4h-12z" fill="#e8ce0c"/><path d="m31 44h2v17h-2z" fill="#3f3f3f"/><path d="m58 55h-2v-18c0-.6-.4-1-1-1h-7v-2h7c1.7 0 3 1.3 3 3z" fill="#3f3f3f"/><path d="m49 35h-2v-2c0-1.7 1.3-3 3-3h4v2h-4c-.6 0-1 .4-1 1z" fill="#2b2b2b"/><path d="m50 35v3l.3.2c1.7 1.1 2.7 3 2.7 5v15.8c0 1.1-.9 2-2 2h-6c-1.1 0-2-.9-2-2v-15.8c0-2 1-3.9 2.7-5l.3-.2v-3z" fill="#c61e1e"/></svg>