<?xml version="1.0" encoding="iso-8859-1"?>
<!-- Generator: Adobe Illustrator 19.0.0, SVG Export Plug-In . SVG Version: 6.00 Build 0)  -->
<svg version="1.1" id="Layer_1" xmlns="http://www.w3.org/2000/svg" xmlns:xlink="http://www.w3.org/1999/xlink" x="0px" y="0px"
	 viewBox="0 0 512.001 512.001" style="enable-background:new 0 0 512.001 512.001;" xml:space="preserve">
<path style="fill:#AC2201;" d="M70.374,512c-8.198,0-14.842-6.645-14.842-14.842V14.841C55.532,6.645,62.177,0,70.373,0h371.253
	c8.198,0,14.842,6.645,14.842,14.842v482.316c0,8.196-6.645,14.842-14.842,14.842H70.374V512z"/>
<g>
	<path style="fill:#891D00;" d="M88.852,473.127V38.873C88.852,17.438,106.29,0,127.725,0H70.374
		c-8.198,0-14.842,6.645-14.842,14.842v482.316c0,8.196,6.645,14.841,14.841,14.841h57.352
		C106.29,512,88.852,494.562,88.852,473.127z"/>
	<path style="fill:#891D00;" d="M399.399,277.657H112.601c-6.983,0-12.643,5.661-12.643,12.643v153.523
		c0,6.984,5.661,12.645,12.645,12.645h286.799c6.983,0,12.643-5.661,12.643-12.643V290.302
		C412.044,283.318,406.383,277.657,399.399,277.657z"/>
</g>
<path style="fill:#720016;" d="M132.721,432.044V302.082c0-13.469,10.956-24.425,24.425-24.425h-44.544
	c-6.984,0-12.645,5.661-12.645,12.643v153.523c0,6.984,5.661,12.645,12.645,12.645h44.544
	C143.677,456.469,132.721,445.512,132.721,432.044z"/>
<rect x="166.595" y="322.082" style="fill:#57565C;" width="178.811" height="45.536"/>
<path style="fill:#3E3D43;" d="M199.915,351.744v-13.787c0-8.753,7.121-15.874,15.874-15.874h-49.194v45.536h49.194
	C207.036,367.618,199.915,360.497,199.915,351.744z"/>
<path style="fill:#ACABB1;" d="M235.095,412.043c-7.151,0-12.969-5.817-12.969-12.969V208.798h67.748v190.276
	c0,7.15-5.817,12.969-12.969,12.969H235.095z"/>
<path style="fill:#898790;" d="M255.446,399.075V208.798h-33.32v190.276c0,7.15,5.817,12.969,12.969,12.969h33.32
	C261.264,412.043,255.446,406.226,255.446,399.075z"/>
<path style="fill:#2E2D30;" d="M183.81,223.236c-15.617,0-28.321-12.704-28.321-28.321s12.704-28.321,28.321-28.321h144.382
	c15.617,0,28.321,12.704,28.321,28.321s-12.704,28.321-28.321,28.321H183.81z"/>
<path style="fill:#1D1D20;" d="M188.809,194.915c0-15.617,12.704-28.321,28.321-28.321h-33.32
	c-15.617,0-28.321,12.704-28.321,28.321s12.704,28.321,28.321,28.321h33.32C201.513,223.236,188.809,210.532,188.809,194.915z"/>
<g>
	<path style="fill:#ECE5DD;" d="M122.725,131.054c4.6,0,8.33-3.728,8.33-8.33V97.735h13.883c4.6,0,8.33-3.728,8.33-8.33
		s-3.73-8.33-8.33-8.33h-13.883V64.416h36.095c4.6,0,8.33-3.728,8.33-8.33s-3.729-8.33-8.33-8.33h-44.425
		c-4.6,0-8.33,3.728-8.33,8.33v66.638C114.395,127.326,118.125,131.054,122.725,131.054z"/>
	<path style="fill:#ECE5DD;" d="M211.575,131.054c4.6,0,8.33-3.728,8.33-8.33V56.087c0-4.601-3.729-8.33-8.33-8.33
		c-4.6,0-8.33,3.728-8.33,8.33v66.638C203.246,127.326,206.975,131.054,211.575,131.054z"/>
	<path style="fill:#ECE5DD;" d="M267.107,131.054c4.6,0,8.33-3.728,8.33-8.33v-13.883h13.883c1.945,0,3.844-0.19,5.689-0.54
		l9.074,18.148c1.459,2.919,4.4,4.606,7.457,4.606c1.252,0,2.522-0.284,3.718-0.882c4.115-2.058,5.783-7.06,3.725-11.176
		l-9.078-18.158c6.115-5.586,9.958-13.623,9.958-22.54c0-16.84-13.701-30.542-30.542-30.542h-22.213c-4.6,0-8.33,3.728-8.33,8.33
		v44.425v22.213C258.777,127.326,262.507,131.054,267.107,131.054z M275.437,64.416h13.883c7.656,0,13.883,6.227,13.883,13.883
		c0,7.656-6.227,13.883-13.883,13.883h-13.883V64.416z"/>
	<path style="fill:#ECE5DD;" d="M355.957,131.054h33.319c4.6,0,8.33-3.728,8.33-8.33s-3.729-8.33-8.33-8.33h-24.989V97.735h13.883
		c4.6,0,8.33-3.728,8.33-8.33s-3.73-8.33-8.33-8.33h-13.883V64.416h24.989c4.6,0,8.33-3.728,8.33-8.33s-3.729-8.33-8.33-8.33
		h-33.319c-4.6,0-8.33,3.728-8.33,8.33v66.638C347.627,127.326,351.357,131.054,355.957,131.054z"/>
</g>
<g>
</g>
<g>
</g>
<g>
</g>
<g>
</g>
<g>
</g>
<g>
</g>
<g>
</g>
<g>
</g>
<g>
</g>
<g>
</g>
<g>
</g>
<g>
</g>
<g>
</g>
<g>
</g>
<g>
</g>
</svg>
