<?xml version="1.0" encoding="iso-8859-1"?>
<!-- Generator: Adobe Illustrator 19.0.0, SVG Export Plug-In . SVG Version: 6.00 Build 0)  -->
<svg version="1.1" id="Layer_1" xmlns="http://www.w3.org/2000/svg" xmlns:xlink="http://www.w3.org/1999/xlink" x="0px" y="0px"
	 viewBox="0 0 512 512" style="enable-background:new 0 0 512 512;" xml:space="preserve">
<path style="fill:#971311;" d="M276.79,30.954c1.726-1.865,2.793-4.349,2.793-7.075v-5.593c0-5.747-4.702-10.449-10.449-10.449
	h-26.269c-5.747,0-10.449,4.702-10.449,10.449v5.593c0,2.726,1.067,5.21,2.793,7.075H276.79z"/>
<path style="opacity:0.1;enable-background:new    ;" d="M256.704,30.954c-1.726-1.865-2.793-4.349-2.793-7.075v-5.593
	c0-5.747,4.702-10.449,10.449-10.449h-21.494c-5.747,0-10.449,4.702-10.449,10.449v5.593c0,2.726,1.067,5.21,2.793,7.075H256.704z"
	/>
<g>
	<path style="fill:#E02424;" d="M251.859,52.338h8.285c12.901,0,25.128,2.858,36.109,7.943V41.403
		c0-5.747-4.702-10.449-10.449-10.449h-59.604c-5.747,0-10.449,4.702-10.449,10.449v18.878
		C226.731,55.196,238.957,52.338,251.859,52.338z"/>
	<path style="fill:#E02424;" d="M346.094,149.717v-11.533c0-47.412-38.48-85.847-85.95-85.847h-8.285
		c-47.47,0-85.951,38.434-85.951,85.847v11.533H346.094z"/>
</g>
<path style="opacity:0.1;enable-background:new    ;" d="M254.466,52.338h-2.607c-47.47,0-85.951,38.434-85.951,85.847v11.533
	h21.711v-11.533c0-36.731,23.104-68.055,55.585-80.305C246.706,54.309,250.5,52.338,254.466,52.338z"/>
<path style="fill:#971311;" d="M289.378,149.717v-11.533c0-47.412-14.257-85.847-31.843-85.847h-3.07
	c-17.587,0-31.843,38.434-31.843,85.847v11.533H289.378z"/>
<path style="opacity:0.1;enable-background:new    ;" d="M244.507,149.717v-11.533c0-38.583,9.443-71.217,22.436-82.035
	c-2.974-2.475-6.131-3.812-9.407-3.812h-3.07c-17.587,0-31.843,38.434-31.843,85.847v11.533H244.507z"/>
<path style="fill:#971311;" d="M425.893,270.377h-19.485v24.873h19.485c2.873,0,5.224-2.351,5.224-5.224v-14.424
	C431.117,272.728,428.766,270.377,425.893,270.377z"/>
<path style="fill:#E02424;" d="M401.182,243.675h-18.41v78.274h18.41c2.873,0,5.224-2.351,5.224-5.224V248.9
	C406.406,246.026,404.055,243.675,401.182,243.675z"/>
<g>
	<path style="fill:#971311;" d="M377.547,229.697h-27.153c-1.451,0-2.766,0.601-3.715,1.564v103.103
		c0.949,0.963,2.263,1.564,3.715,1.564h27.153c2.873,0,5.224-2.351,5.224-5.224v-95.783
		C382.772,232.048,380.421,229.697,377.547,229.697z"/>
	<path style="fill:#971311;" d="M105.594,270.377H86.108c-2.873,0-5.224,2.351-5.224,5.224v14.424c0,2.873,2.351,5.224,5.224,5.224
		h19.484v-24.873H105.594z"/>
</g>
<path style="fill:#E02424;" d="M129.229,243.675h-18.411c-2.873,0-5.224,2.351-5.224,5.224v67.825c0,2.873,2.351,5.224,5.224,5.224
	h18.411V243.675z"/>
<path style="fill:#971311;" d="M165.321,231.261c-0.949-0.963-2.263-1.564-3.715-1.564h-27.153c-2.873,0-5.224,2.351-5.224,5.224
	v95.783c0,2.873,2.351,5.224,5.224,5.224h27.153c1.45,0,2.765-0.601,3.715-1.564L165.321,231.261L165.321,231.261z"/>
<g style="opacity:0.1;">
	<path d="M146.301,330.704v-95.783c0-2.873,2.351-5.225,5.224-5.225h-17.072c-2.873,0-5.224,2.351-5.224,5.225v95.783
		c0,2.873,2.351,5.224,5.224,5.224h17.072C148.652,335.928,146.301,333.577,146.301,330.704z"/>
</g>
<rect x="165.324" y="184.571" style="fill:#E02424;" width="181.363" height="255.206"/>
<rect x="165.324" y="383.613" style="fill:#971311;" width="181.363" height="56.168"/>
<rect x="165.324" y="184.571" style="opacity:0.1;enable-background:new    ;" width="32.622" height="255.206"/>
<path style="fill:#E02424;" d="M366.986,463.388v-18.383c0-2.873-2.351-5.224-5.224-5.224H150.239c-2.873,0-5.225,2.351-5.225,5.224
	v18.383H366.986z"/>
<path style="opacity:0.1;enable-background:new    ;" d="M177.633,463.388v-18.383c0-2.873,2.351-5.224,5.224-5.224h-32.619
	c-2.873,0-5.225,2.351-5.225,5.224v18.383H177.633z"/>
<path style="fill:#E02424;" d="M362.98,179.348c0,2.873-2.351,5.224-5.224,5.224H154.245c-2.873,0-5.224-2.351-5.224-5.224v-24.406
	c0-2.873,2.351-5.224,5.224-5.224h203.511c2.873,0,5.224,2.351,5.224,5.224V179.348z"/>
<g style="opacity:0.1;">
	<path d="M181.813,179.348v-24.406c0-2.873,2.351-5.224,5.224-5.224h-32.792c-2.873,0-5.224,2.351-5.224,5.224v24.406
		c0,2.873,2.351,5.224,5.224,5.224h32.792C184.164,184.573,181.813,182.222,181.813,179.348z"/>
</g>
<ellipse style="fill:#971311;" cx="256.001" cy="282.812" rx="72.072" ry="71.984"/>
<ellipse style="fill:#E02424;" cx="256.001" cy="282.812" rx="49.048" ry="48.989"/>
<g style="opacity:0.1;">
	<path d="M228.833,282.813c0-23.298,16.288-42.782,38.108-47.75c-3.52-0.802-7.178-1.239-10.941-1.239
		c-27.09,0-49.048,21.932-49.048,48.989c0,27.057,21.959,48.989,49.048,48.989c3.763,0,7.421-0.437,10.941-1.238
		C245.121,325.595,228.833,306.111,228.833,282.813z"/>
</g>
<g>
	<ellipse style="fill:#971311;" cx="256.001" cy="282.812" rx="18.509" ry="18.485"/>
	<path style="fill:#971311;" d="M383.229,498.939c0,2.873-2.351,5.224-5.224,5.224H133.996c-2.873,0-5.225-2.351-5.225-5.224
		v-30.326c0-2.873,2.351-5.224,5.225-5.224h244.008c2.873,0,5.224,2.351,5.224,5.224v30.326H383.229z"/>
</g>
<g style="opacity:0.1;">
	<path d="M161.413,498.939v-30.326c0-2.873,2.351-5.224,5.224-5.224h-32.641c-2.873,0-5.224,2.351-5.224,5.224v30.326
		c0,2.873,2.351,5.224,5.224,5.224h32.641C163.764,504.163,161.413,501.812,161.413,498.939z"/>
</g>
<path d="M176.092,282.813c0,44.013,35.846,79.821,79.909,79.821c44.061,0,79.909-35.808,79.909-79.821s-35.847-79.822-79.909-79.822
	C211.938,202.992,176.092,238.8,176.092,282.813z M256.001,218.666c35.419,0,64.235,28.776,64.235,64.148
	c0,35.371-28.815,64.147-64.235,64.147c-35.419,0-64.235-28.776-64.235-64.147C191.765,247.442,220.582,218.666,256.001,218.666z"/>
<path d="M256.001,339.639c5.782,0,11.489-0.864,16.96-2.57c4.133-1.287,6.438-5.682,5.15-9.814c-1.288-4.133-5.684-6.44-9.814-5.15
	c-3.961,1.235-8.098,1.86-12.297,1.86c-22.724,0-41.211-18.461-41.211-41.152s18.487-41.152,41.211-41.152
	s41.211,18.461,41.211,41.152c0,9.474-3.132,18.377-9.057,25.745c-2.713,3.373-2.177,8.306,1.196,11.018
	c3.373,2.714,8.306,2.175,11.018-1.196c8.072-10.037,12.516-22.668,12.516-35.567c0-31.333-25.518-56.826-56.884-56.826
	c-31.367,0-56.884,25.491-56.884,56.826S224.634,339.639,256.001,339.639z"/>
<path d="M229.653,282.813c0,14.515,11.819,26.322,26.347,26.322c14.527,0,26.346-11.808,26.346-26.322
	c0-14.516-11.819-26.323-26.346-26.323C241.473,256.49,229.653,268.298,229.653,282.813z M266.673,282.813
	c0,5.871-4.788,10.649-10.673,10.649c-5.885,0-10.674-4.777-10.674-10.649c0-5.872,4.789-10.65,10.674-10.65
	C261.885,272.164,266.673,276.941,266.673,282.813z"/>
<path d="M425.893,262.54h-11.649V248.9c0-7.202-5.86-13.061-13.061-13.061H390.61v-0.917c0-7.202-5.859-13.061-13.061-13.061
	h-23.031v-29.451h3.239c7.202,0,13.061-5.859,13.061-13.061v-24.406c0-7.202-5.859-13.061-13.061-13.061h-3.825v-3.696
	c0-35.806-20.216-66.978-49.842-82.742V41.403c0-9.537-7.341-17.381-16.668-18.204v-4.913C287.422,8.203,279.219,0,269.136,0
	h-26.269c-10.082,0-18.286,8.203-18.286,18.286v4.913c-9.326,0.823-16.667,8.667-16.667,18.204v14.041
	c-29.626,15.763-49.842,46.936-49.842,82.741v3.696h-3.825c-7.202,0-13.061,5.859-13.061,13.061v24.406
	c0,7.202,5.859,13.061,13.061,13.061h3.239v29.451h-23.031c-7.202,0-13.061,5.859-13.061,13.061v0.917H110.82
	c-7.202,0-13.061,5.859-13.061,13.061v13.64H86.108c-7.202,0-13.061,5.859-13.061,13.061v14.424c0,7.202,5.859,13.061,13.061,13.061
	h11.647v13.64c0,7.202,5.859,13.061,13.061,13.061h10.574v0.917c0,7.202,5.859,13.061,13.061,13.061h23.031v88.179h-7.245
	c-7.202,0-13.061,5.859-13.061,13.061v10.546h-3.182c-7.202,0-13.061,5.859-13.061,13.061v30.324
	c0,7.202,5.859,13.061,13.061,13.061h50.952c4.328,0,7.837-3.508,7.837-7.837s-3.509-7.837-7.837-7.837h-48.339v-25.102h238.783
	v25.102H218.384c-4.328,0-7.837,3.508-7.837,7.837s3.509,7.837,7.837,7.837h159.621c7.202,0,13.061-5.859,13.061-13.061v-30.326
	c0-7.202-5.859-13.061-13.061-13.061h-3.182v-10.546c0-7.202-5.859-13.061-13.061-13.061h-7.245v-88.179h23.031
	c7.202,0,13.061-5.859,13.061-13.061v-0.917h10.573c7.201,0,13.061-5.859,13.061-13.061v-13.64h11.649
	c7.202,0,13.061-5.859,13.061-13.061V275.6C438.954,268.399,433.094,262.54,425.893,262.54z M97.757,287.413h-9.035v-9.199h9.035
	V287.413z M121.393,314.113h-7.962v-62.601h7.962V314.113z M338.257,138.185v3.696h-41.042v-3.696
	c0-5.905-0.216-11.813-0.644-17.557c-0.321-4.315-4.073-7.546-8.397-7.234c-4.316,0.322-7.556,4.08-7.234,8.397
	c0.399,5.359,0.601,10.875,0.601,16.393v3.696H230.46v-3.696c0-46.897,14.449-78.01,24.007-78.01h3.07
	c5.456,0,13.726,11.196,18.972,32.596c1.029,4.203,5.27,6.778,9.477,5.745c4.203-1.03,6.775-5.274,5.745-9.477
	c-2.499-10.196-5.723-18.802-9.509-25.669C314.572,72.906,338.257,102.826,338.257,138.185z M240.254,18.286
	c0-1.416,1.196-2.612,2.612-2.612h26.269c1.416,0,2.612,1.196,2.612,2.612v4.832h-31.493L240.254,18.286L240.254,18.286z
	 M223.586,41.403c0-1.416,1.196-2.612,2.612-2.612h59.604c1.417,0,2.612,1.196,2.612,2.612v7.451
	c-8.926-2.824-18.423-4.353-28.272-4.353h-8.285c-9.849,0-19.347,1.529-28.273,4.353v-7.451H223.586z M173.744,138.185
	c0-35.325,23.64-65.223,55.944-74.791c-1.759,3.24-3.465,6.992-5.087,11.362c-6.33,17.065-9.816,39.591-9.816,63.428v3.696h-41.041
	V138.185z M137.066,328.092v-90.558h20.418v90.558H137.066z M359.15,447.618v7.934H152.851v-7.934h131.361
	c4.329,0,7.837-3.508,7.837-7.837s-3.508-7.837-7.837-7.837H173.158v-40.495h165.685v40.495H315.56
	c-4.329,0-7.837,3.508-7.837,7.837s3.508,7.837,7.837,7.837H359.15z M242.417,176.736c-4.328,0-7.837,3.508-7.837,7.837
	c0,4.329,3.509,7.837,7.837,7.837h96.426v183.366H173.158V192.41h34.777c4.328,0,7.837-3.508,7.837-7.837
	c0-4.329-3.509-7.837-7.837-7.837h-51.078v-19.181h198.286v19.181H242.417z M374.935,328.092h-20.418v-90.558h20.418
	L374.935,328.092L374.935,328.092z M398.57,314.113h-7.961v-62.601h7.961V314.113z M423.28,287.413h-9.036v-9.199h9.036V287.413z"/>
<path style="opacity:0.1;enable-background:new    ;" d="M237.192,53.608V41.403c0-5.747,4.702-10.449,10.449-10.449h-21.443
	c-5.747,0-10.449,4.702-10.449,10.449v18.878C222.473,57.168,229.664,54.902,237.192,53.608z"/>
<g>
</g>
<g>
</g>
<g>
</g>
<g>
</g>
<g>
</g>
<g>
</g>
<g>
</g>
<g>
</g>
<g>
</g>
<g>
</g>
<g>
</g>
<g>
</g>
<g>
</g>
<g>
</g>
<g>
</g>
</svg>
