<?xml version="1.0" encoding="UTF-8"?>
<svg width="16px" height="17px" viewBox="0 0 14 15" version="1.1"
     xmlns="http://www.w3.org/2000/svg">
    <defs></defs>
    <g id="Page-1" stroke="none" stroke-width="1" fill="none" fill-rule="evenodd">
        <g id="Menus" transform="translate(-1248.000000, -978.000000)" fill="#CAD1E3"
           fill-rule="nonzero">
            <g id="Group-2" transform="translate(1223.000000, 541.000000)">
                <g id="Group" transform="translate(23.000000, 28.000000)">
                    <g id="Group-11" transform="translate(2.000000, 408.000000)">
                        <g id="shut-down" transform="translate(0.000000, 1.000000)">
                            <path d="M7.01059706,5.20555385 C7.36148777,5.20555385 7.65265579,4.91134615 7.65265579,4.55676923 L7.65265579,0.648784615 C7.65265579,0.294207692 7.36148777,0 7.01059706,0 C6.6521925,0 6.3685155,0.286638462 6.3685155,0.648784615 L6.3685155,4.55676923 C6.3685155,4.91891538 6.6521925,5.20555385 7.01059706,5.20555385 Z"
                                  id="Shape"></path>
                            <path d="M12.8343915,4.04383846 C12.0578825,2.85925385 11.022522,1.97822308 9.72830995,1.4334 C9.49926264,1.33698462 9.25795106,1.44853846 9.16842414,1.66726154 C9.07873736,1.88614615 9.17653181,2.14850769 9.39237847,2.24072308 C10.5354225,2.72935385 11.4380914,3.49306154 12.1176052,4.52667692 C12.7971191,5.56013077 13.1405416,6.69948462 13.1405416,7.94425385 C13.1405416,8.78166923 12.9761501,9.58885385 12.6551778,10.3509231 C12.3340457,11.1128538 11.8936281,11.7767769 11.3485644,12.3275308 C10.8035008,12.8782846 10.1464372,13.3233 9.39237847,13.6477846 C8.63818271,13.9721077 7.83933768,14.1381923 7.01059706,14.1381923 C6.18181077,14.1381923 5.38285155,13.9721077 4.62879282,13.6477846 C3.87473409,13.3233 3.21767047,12.8782846 2.67260685,12.3275308 C2.12754323,11.7767538 1.6869429,11.1128308 1.36599347,10.3509231 C1.04488418,9.58885385 0.880652529,8.78166923 0.880652529,7.94425385 C0.880652529,6.71443846 1.20909299,5.58281538 1.87364763,4.54922308 C2.53820228,3.51560769 3.43274062,2.74273846 4.5466199,2.2557 C4.76166721,2.16170769 4.87697879,1.91208462 4.77806525,1.69753846 C4.67517781,1.47413077 4.42541599,1.36871538 4.21068842,1.46367692 C2.9394062,2.02520769 1.92585644,2.90464615 1.16430669,4.0815 C0.402756933,5.25835385 0.0219249592,6.54851538 0.0219249592,7.94425385 C0.0219249592,8.90240769 0.2054323,9.81657692 0.574479608,10.6827923 C0.944646003,11.5517538 1.44992496,12.3029077 2.06777488,12.9311077 C2.68930179,13.5629769 3.43349429,14.0715923 4.2928385,14.4399923 C5.15823491,14.8109769 6.06234258,14.9981769 7.01057423,14.9981769 C7.95880587,14.9981769 8.86163458,14.8082769 9.72081892,14.4399923 C10.5863524,14.0688462 11.3316639,13.5629769 11.9533736,12.9311077 C12.5712463,12.3029077 13.0701077,11.5490308 13.4391778,10.6827923 C13.809367,9.81385385 13.9990865,8.90240769 13.9990865,7.94425385 C13.9990865,6.52583077 13.6109005,5.22826154 12.8343915,4.04383846 Z"
                                  id="Shape"></path>
                        </g>
                    </g>
                </g>
            </g>
        </g>
    </g>
</svg>
