<svg height="512pt" viewBox="0 -48 512 512" width="512pt" xmlns="http://www.w3.org/2000/svg"><path d="m274.5 39.664062h-240c-8.285156 0-15 6.71875-15 15v.011719 49.992188h30v-35h30v35h30v-35h30v35h30v-35h30v35h30v-35h30v35h30v-50c0-8.285157-6.714844-15.003907-15-15.003907zm0 0" fill="#f5f0eb"/><path d="m365 104.664062c-16.570312 0-30-13.429687-30-30v-44.664062c0-16.570312 13.429688-30 30-30s30 13.429688 30 30v44.667969c0 16.566406-13.429688 29.996093-30 29.996093zm0 0" fill="#008adf"/><path d="m324 367.664062h-263.832031c-3.910157 0-7.664063-1.523437-10.464844-4.253906l-45.171875-44c-2.894531-2.820312-4.53125-6.695312-4.53125-10.746094v-194c0-8.28125 6.714844-15 15-15h309c8.285156 0 15 6.71875 15 15v238c0 8.285157-6.714844 15-15 15zm0 0" fill="#ff1f3e"/><path d="m497 367.660156h-188.085938v-103.996094l8.417969-15-8.417969-15v-166c0-8.28125 6.714844-15 15-15h74.085938c62.960938 0 114 51.042969 114 114v67l-9.167969 15 9.167969 15v88.996094c0 8.285156-6.714844 15-15 15zm0 0" fill="#d10050"/><path d="m111 416.664062c-33.085938 0-60-26.914062-60-60 0-33.082031 26.914062-60 60-60s60 26.917969 60 60c0 33.085938-26.914062 60-60 60zm0 0" fill="#00347b"/><path d="m45 114.664062h219v119h-219zm0 0" fill="#dcd2cd" fill-rule="evenodd"/><path d="m30 99.664062v119c0 16.570313 13.429688 30 30 30h189c16.570312 0 30-13.429687 30-30v-119zm219 30v30h-189v-30zm-189 89v-29h189v29zm0 0" fill="#ebe1dc"/><path d="m111 378.164062c-11.855469 0-21.5-9.644531-21.5-21.5 0-11.851562 9.644531-21.5 21.5-21.5s21.5 9.648438 21.5 21.5c0 11.855469-9.644531 21.5-21.5 21.5zm0 0" fill="#00429d"/><path d="m410.5 416.664062c-33.085938 0-60-26.914062-60-60 0-33.082031 26.914062-60 60-60s60 26.917969 60 60c0 33.085938-26.914062 60-60 60zm0 0" fill="#001737"/><path d="m410.5 378.164062c-11.855469 0-21.5-9.644531-21.5-21.5 0-11.851562 9.644531-21.5 21.5-21.5s21.5 9.648438 21.5 21.5c0 11.855469-9.644531 21.5-21.5 21.5zm0 0" fill="#00347b"/><path d="m308.914062 233.667969h203.085938v30h-203.085938zm0 0" fill="#dcd2cd"/><path d="m482 173.664062v-7c0-46.390624-37.609375-84-84-84h-20c-8.285156 0-15 6.71875-15 15v61c0 16.570313 13.429688 30 30 30h74c8.285156 0 15-6.714843 15-15zm0 0" fill="#ebe1dc"/></svg>